HIERARCHY
ROOT Hips
{
	OFFSET 0.000000 71.427986 0.000000
	CHANNELS 6 Xposition Yposition Zposition Xrotation Yrotation Zrotation
	JOINT Pelvis
	{
		OFFSET 0.000000 0.000000 0.000000
		CHANNELS 3 Xrotation Yrotation Zrotation
		JOINT LeftUpLeg
		{
			OFFSET 6.797100 -2.508499 -1.318700
			CHANNELS 3 Xrotation Yrotation Zrotation
			JOINT LeftLeg
			{
				OFFSET 0.069008 -29.241863 0.690200
				CHANNELS 3 Xrotation Yrotation Zrotation
				JOINT LeftFoot
				{
					OFFSET -0.069008 -29.568123 -0.266800
					CHANNELS 3 Xrotation Yrotation Zrotation
					JOINT LeftToeBase
					{
						OFFSET 3.145500 -8.631000 16.059900
						CHANNELS 3 Xrotation Yrotation Zrotation
						End Site
						{
							OFFSET 0.000000 18.501587 0.000000
						}
					}
				}
			}
			JOINT Left_ShortSleeve
			{
				OFFSET 0.265923 -10.480953 1.153800
				CHANNELS 3 Xrotation Yrotation Zrotation
				End Site
				{
					OFFSET 1.725763 19.823879 0.000000
				}
			}
		}
		JOINT RightUpLeg
		{
			OFFSET -6.797100 -2.508499 -1.318700
			CHANNELS 3 Xrotation Yrotation Zrotation
			JOINT RightLeg
			{
				OFFSET -0.082453 -29.241932 0.688000
				CHANNELS 3 Xrotation Yrotation Zrotation
				JOINT RightFoot
				{
					OFFSET 0.082453 -29.568058 -0.264600
					CHANNELS 3 Xrotation Yrotation Zrotation
					JOINT RightToeBase
					{
						OFFSET -3.115300 -8.682800 16.113400
						CHANNELS 3 Xrotation Yrotation Zrotation
						End Site
						{
							OFFSET 0.000000 18.567114 0.000000
						}
					}
				}
			}
			JOINT Right_ShortSleeve
			{
				OFFSET -0.265923 -10.480953 1.153800
				CHANNELS 3 Xrotation Yrotation Zrotation
				End Site
				{
					OFFSET -1.725766 19.823910 0.000000
				}
			}
		}
	}
	JOINT Spine
	{
		OFFSET 0.000000 13.368103 0.470500
		CHANNELS 3 Xrotation Yrotation Zrotation
		JOINT Spine1
		{
			OFFSET 0.147000 13.837402 0.538800
			CHANNELS 3 Xrotation Yrotation Zrotation
			JOINT Spine2
			{
				OFFSET 0.168000 16.242897 -1.435500
				CHANNELS 3 Xrotation Yrotation Zrotation
				JOINT Neck
				{
					OFFSET 0.217200 18.631500 -1.679100
					CHANNELS 3 Xrotation Yrotation Zrotation
					JOINT Head
					{
						OFFSET 0.000000 6.599396 1.385900
						CHANNELS 3 Xrotation Yrotation Zrotation
						JOINT Hat
						{
							OFFSET -0.532200 27.220596 -10.096100
							CHANNELS 3 Xrotation Yrotation Zrotation
							End Site
							{
								OFFSET 0.000000 22.029861 0.000000
							}
						}
						JOINT HairD
						{
							OFFSET -10.777400 17.437393 -1.325900
							CHANNELS 3 Xrotation Yrotation Zrotation
							JOINT HairD1
							{
								OFFSET -3.290299 -11.051193 1.062200
								CHANNELS 3 Xrotation Yrotation Zrotation
								End Site
								{
									OFFSET 0.000000 11.579437 0.000000
								}
							}
						}
						JOINT HairB
						{
							OFFSET -10.777400 17.437393 1.467900
							CHANNELS 3 Xrotation Yrotation Zrotation
							JOINT HairB1
							{
								OFFSET -1.561200 -12.956299 3.590200
								CHANNELS 3 Xrotation Yrotation Zrotation
								End Site
								{
									OFFSET 0.000000 13.534866 0.000000
								}
							}
						}
						JOINT HairA
						{
							OFFSET 9.713100 17.437393 1.467900
							CHANNELS 3 Xrotation Yrotation Zrotation
							JOINT HairA1
							{
								OFFSET 1.561200 -12.956299 3.590200
								CHANNELS 3 Xrotation Yrotation Zrotation
								End Site
								{
									OFFSET 0.000000 13.534866 0.000000
								}
							}
						}
						JOINT HairC
						{
							OFFSET 9.713100 17.437393 -1.325900
							CHANNELS 3 Xrotation Yrotation Zrotation
							JOINT HairC1
							{
								OFFSET 3.290300 -11.051193 1.062200
								CHANNELS 3 Xrotation Yrotation Zrotation
								End Site
								{
									OFFSET 0.000000 11.579437 0.000000
								}
							}
						}
					}
				}
				JOINT LeftShoulder
				{
					OFFSET 5.101800 15.108002 -2.763700
					CHANNELS 3 Xrotation Yrotation Zrotation
					JOINT LeftArm
					{
						OFFSET 9.825497 2.506317 -1.597400
						CHANNELS 3 Xrotation Yrotation Zrotation
						JOINT LeftForeArm
						{
							OFFSET 21.966244 0.000000 0.000000
							CHANNELS 3 Xrotation Yrotation Zrotation
							JOINT LeftHand
							{
								OFFSET 33.879036 0.000000 0.000000
								CHANNELS 3 Xrotation Yrotation Zrotation
								JOINT LeftHandThumb1
								{
									OFFSET 6.715286 -2.359680 3.363841
									CHANNELS 3 Xrotation Yrotation Zrotation
									JOINT LeftHandThumb2
									{
										OFFSET 2.507072 -1.447464 1.447461
										CHANNELS 3 Xrotation Yrotation Zrotation
										JOINT LeftHandThumb3
										{
											OFFSET 2.898338 -1.673355 1.673357
											CHANNELS 3 Xrotation Yrotation Zrotation
											End Site
											{
												OFFSET -0.295959 3.727692 -0.131651
											}
										}
									}
								}
								JOINT LeftHandIndex1
								{
									OFFSET 14.190811 -0.254547 3.840278
									CHANNELS 3 Xrotation Yrotation Zrotation
									JOINT LeftHandIndex2
									{
										OFFSET 3.551727 0.000000 -0.000000
										CHANNELS 3 Xrotation Yrotation Zrotation
										JOINT LeftHandIndex3
										{
											OFFSET 2.894196 0.000000 0.000000
											CHANNELS 3 Xrotation Yrotation Zrotation
											End Site
											{
												OFFSET -1.000603 2.690872 0.366626
											}
										}
									}
								}
								JOINT LeftHandMiddle1
								{
									OFFSET 13.776489 0.000000 0.000000
									CHANNELS 3 Xrotation Yrotation Zrotation
									JOINT LeftHandMiddle2
									{
										OFFSET 3.438232 0.000000 0.000000
										CHANNELS 3 Xrotation Yrotation Zrotation
										JOINT LeftHandMiddle3
										{
											OFFSET 3.691551 0.000000 0.000000
											CHANNELS 3 Xrotation Yrotation Zrotation
											End Site
											{
												OFFSET -1.082298 3.499527 0.457670
											}
										}
									}
								}
								JOINT LeftHandRing1
								{
									OFFSET 13.966164 -0.268127 -3.067488
									CHANNELS 3 Xrotation Yrotation Zrotation
									JOINT LeftHandRing2
									{
										OFFSET 3.162567 0.000000 0.000000
										CHANNELS 3 Xrotation Yrotation Zrotation
										JOINT LeftHandRing3
										{
											OFFSET 3.324348 0.000000 0.000000
											CHANNELS 3 Xrotation Yrotation Zrotation
											End Site
											{
												OFFSET -0.861900 3.184998 0.405154
											}
										}
									}
								}
								JOINT LeftHandPinky1
								{
									OFFSET 13.131393 -0.168503 -5.746925
									CHANNELS 3 Xrotation Yrotation Zrotation
									JOINT LeftHandPinky2
									{
										OFFSET 2.849182 0.000000 0.000000
										CHANNELS 3 Xrotation Yrotation Zrotation
										JOINT LeftHandPinky3
										{
											OFFSET 2.805038 0.000000 0.000000
											CHANNELS 3 Xrotation Yrotation Zrotation
											End Site
											{
												OFFSET -0.882500 2.642609 0.325652
											}
										}
									}
								}
							}
							JOINT Left_Sleeve
							{
								OFFSET 6.592125 -0.646545 0.805568
								CHANNELS 3 Xrotation Yrotation Zrotation
								End Site
								{
									OFFSET -0.000179 20.275787 -0.000000
								}
							}
						}
					}
				}
				JOINT RightShoulder
				{
					OFFSET -5.731700 15.108002 -2.763700
					CHANNELS 3 Xrotation Yrotation Zrotation
					JOINT RightArm
					{
						OFFSET -9.825497 2.506317 -1.597400
						CHANNELS 3 Xrotation Yrotation Zrotation
						JOINT RightForeArm
						{
							OFFSET -21.966242 0.000000 0.000000
							CHANNELS 3 Xrotation Yrotation Zrotation
							JOINT RightHand
							{
								OFFSET -33.879032 0.000000 0.000000
								CHANNELS 3 Xrotation Yrotation Zrotation
								JOINT RightHandThumb1
								{
									OFFSET -6.715286 -2.359680 3.363841
									CHANNELS 3 Xrotation Yrotation Zrotation
									JOINT RightHandThumb2
									{
										OFFSET -2.507072 -1.447464 1.447461
										CHANNELS 3 Xrotation Yrotation Zrotation
										JOINT RightHandThumb3
										{
											OFFSET -2.898338 -1.673355 1.673357
											CHANNELS 3 Xrotation Yrotation Zrotation
											End Site
											{
												OFFSET 0.295959 3.727692 -0.131651
											}
										}
									}
								}
								JOINT RightHandIndex1
								{
									OFFSET -14.190811 -0.254547 3.840278
									CHANNELS 3 Xrotation Yrotation Zrotation
									JOINT RightHandIndex2
									{
										OFFSET -3.551727 0.000000 -0.000000
										CHANNELS 3 Xrotation Yrotation Zrotation
										JOINT RightHandIndex3
										{
											OFFSET -2.894196 0.000000 0.000000
											CHANNELS 3 Xrotation Yrotation Zrotation
											End Site
											{
												OFFSET 1.000603 2.690872 0.366626
											}
										}
									}
								}
								JOINT RightHandMiddle1
								{
									OFFSET -13.776489 0.000000 0.000000
									CHANNELS 3 Xrotation Yrotation Zrotation
									JOINT RightHandMiddle2
									{
										OFFSET -3.438232 0.000000 0.000000
										CHANNELS 3 Xrotation Yrotation Zrotation
										JOINT RightHandMiddle3
										{
											OFFSET -3.691551 0.000000 0.000000
											CHANNELS 3 Xrotation Yrotation Zrotation
											End Site
											{
												OFFSET 1.082298 3.499527 0.457670
											}
										}
									}
								}
								JOINT RightHandRing1
								{
									OFFSET -13.966164 -0.268127 -3.067488
									CHANNELS 3 Xrotation Yrotation Zrotation
									JOINT RightHandRing2
									{
										OFFSET -3.162567 0.000000 0.000000
										CHANNELS 3 Xrotation Yrotation Zrotation
										JOINT RightHandRing3
										{
											OFFSET -3.324348 0.000000 0.000000
											CHANNELS 3 Xrotation Yrotation Zrotation
											End Site
											{
												OFFSET 0.861900 3.184998 0.405154
											}
										}
									}
								}
								JOINT RightHandPinky1
								{
									OFFSET -13.131393 -0.168503 -5.746925
									CHANNELS 3 Xrotation Yrotation Zrotation
									JOINT RightHandPinky2
									{
										OFFSET -2.849182 0.000000 0.000000
										CHANNELS 3 Xrotation Yrotation Zrotation
										JOINT RightHandPinky3
										{
											OFFSET -2.805038 0.000000 0.000000
											CHANNELS 3 Xrotation Yrotation Zrotation
											End Site
											{
												OFFSET 0.882500 2.642609 0.325652
											}
										}
									}
								}
							}
							JOINT Right_Sleeve
							{
								OFFSET -6.592125 -0.646545 0.805568
								CHANNELS 3 Xrotation Yrotation Zrotation
								End Site
								{
									OFFSET 0.000179 20.275787 -0.000000
								}
							}
						}
					}
				}
				JOINT Bind_Right_JacketString
				{
					OFFSET -3.534800 11.969597 7.200700
					CHANNELS 3 Xrotation Yrotation Zrotation
					JOINT Bind_Right_JacketString1
					{
						OFFSET -0.319900 -6.102600 2.794100
						CHANNELS 3 Xrotation Yrotation Zrotation
						End Site
						{
							OFFSET 0.000000 6.719452 0.000000
						}
					}
				}
				JOINT Bind_Left_JacketString
				{
					OFFSET 2.904800 11.969597 7.200700
					CHANNELS 3 Xrotation Yrotation Zrotation
					JOINT Bind_Left_JacketString1
					{
						OFFSET 0.364800 -5.904503 3.186800
						CHANNELS 3 Xrotation Yrotation Zrotation
						End Site
						{
							OFFSET 0.000000 6.719513 0.000000
						}
					}
				}
				JOINT HairE
				{
					OFFSET 5.915200 17.612701 -11.592200
					CHANNELS 3 Xrotation Yrotation Zrotation
					JOINT HairE1
					{
						OFFSET 0.289200 -7.171898 -1.284500
						CHANNELS 3 Xrotation Yrotation Zrotation
						End Site
						{
							OFFSET 0.000000 7.291756 0.000000
						}
					}
				}
				JOINT HairF
				{
					OFFSET -0.864800 17.612701 -11.592200
					CHANNELS 3 Xrotation Yrotation Zrotation
					JOINT HairF1
					{
						OFFSET 0.000000 -14.087097 -2.127501
						CHANNELS 3 Xrotation Yrotation Zrotation
						End Site
						{
							OFFSET 0.000000 14.246841 0.000000
						}
					}
				}
				JOINT HairG
				{
					OFFSET -8.087700 17.612701 -11.592200
					CHANNELS 3 Xrotation Yrotation Zrotation
					JOINT HairG1
					{
						OFFSET -0.293600 -6.081398 -0.910100
						CHANNELS 3 Xrotation Yrotation Zrotation
						End Site
						{
							OFFSET 0.000000 6.156120 0.000000
						}
					}
				}
			}
		}
	}
	JOINT Pouch
	{
		OFFSET 0.000000 4.394501 10.847300
		CHANNELS 3 Xrotation Yrotation Zrotation
		End Site
		{
			OFFSET 0.000000 21.880577 0.000000
		}
	}
	JOINT Bag
	{
		OFFSET -13.229000 4.813004 -0.593300
		CHANNELS 3 Xrotation Yrotation Zrotation
		End Site
		{
			OFFSET 0.000000 21.880577 0.000000
		}
	}
	JOINT OccupyGuyFacialAnim_Joint
	{
		OFFSET 1.000000 -70.206398 -1.655000
		CHANNELS 3 Xrotation Yrotation Zrotation
		End Site
		{
			OFFSET 0.000000 21.880577 0.000000
		}
	}
}
MOTION
Frames: 4
Frame Time: 0.033333
11.859325 66.868027 127.278381 159.314067 -26.860834 150.347750 -0.000001 -0.000003 -0.000000 -38.316419 3.566947 10.340654 46.174384 15.244055 -0.945552 -30.177951 -1.401304 3.305682 0.000000 0.000002 -0.000000 -0.000001 -0.000004 -0.000003 -64.633916 20.749087 -9.999299 31.907427 -6.550059 5.944206 23.004238 2.629452 10.130922 -0.000001 -0.000004 0.000001 0.000002 0.000002 -0.000004 16.286424 -8.201708 -0.729872 0.584742 -2.237572 0.420391 0.580768 -2.258383 0.454593 -5.989434 -0.098258 3.732167 -17.441016 -4.146038 -0.206510 0.000000 0.000001 -0.000002 0.000000 0.000001 -0.000002 0.000000 0.000001 -0.000003 0.000000 0.000001 -0.000000 0.000000 0.000002 -0.000002 0.000000 0.000001 -0.000000 0.000000 0.000002 -0.000002 0.000000 0.000001 -0.000002 0.000000 0.000001 -0.000002 8.033604 5.417642 0.582250 0.653970 25.941934 -20.678924 -31.401938 4.729939 -20.218451 -11.203954 27.432300 -6.100364 -11.508765 -22.807882 17.986834 -20.009509 36.673348 -17.827185 -0.000001 0.000001 -0.000001 2.911936 4.199660 -2.599415 -0.045598 -4.105768 -5.266843 0.000000 0.000001 -0.000002 -0.674736 4.152945 2.358299 0.021093 -4.837665 -13.564679 -0.000000 -0.000002 -0.000003 -2.241302 4.197802 -4.029809 -0.854479 -0.455095 -2.562064 0.000001 0.000000 0.000002 -9.439227 9.949998 0.779871 -0.093845 -0.034067 -14.340131 0.000001 -0.000002 0.000004 0.000001 0.000002 0.000002 0.357084 4.476169 3.900956 -6.566107 20.928012 12.862996 -26.449720 53.174191 31.468563 -13.036963 -27.033317 -11.161865 24.918340 -21.323386 30.343061 9.041922 8.262102 -18.001821 -0.000000 -0.000001 0.000000 -0.070687 -3.035240 61.424233 0.006476 4.395177 66.609173 -0.000001 0.000001 0.000004 -1.235399 -0.119481 68.274277 -0.077302 4.902841 84.501898 0.000001 -0.000000 -0.000001 0.883161 -4.613428 79.192949 -0.717758 1.136478 73.255773 -0.000000 -0.000002 -0.000000 -3.944545 0.099982 86.764781 -0.029789 0.060120 54.415161 -0.000000 0.000003 0.000001 -0.000000 -0.000000 -0.000001 -0.000000 0.000000 0.000003 0.000001 0.000000 0.000001 -0.000000 0.000000 0.000002 -0.000000 0.000000 0.000002 -0.000000 0.000000 0.000003 0.000001 0.000000 0.000001 -0.000000 0.000000 0.000002 -0.000000 0.000000 0.000002 -0.000000 0.000000 0.000003 0.000001 0.000000 0.000001 -0.000001 -0.000003 -0.000000 -0.000001 -0.000003 -0.000000 -0.000001 -0.000003 -0.000000 
10.582287 68.856461 130.720200 166.290791 -8.035098 152.153870 -0.000000 -0.000001 0.000001 -37.684192 17.858935 17.559899 35.347462 19.077029 -0.174518 -26.509969 -1.498125 5.673768 -0.000000 0.000001 -0.000000 -0.000001 -0.000000 -0.000002 -69.945556 17.285549 -12.328205 39.009379 -2.655585 6.396161 15.536049 -0.122669 12.004040 -0.000001 0.000000 -0.000001 -0.000003 0.000001 0.000001 15.113508 -9.436030 0.372892 0.197474 -2.649461 0.472416 0.189389 -2.668401 0.506611 -5.978231 0.904248 3.854084 -16.133576 -3.245343 0.164776 -0.000000 0.000000 -0.000001 -0.000000 0.000000 -0.000001 -0.000000 0.000000 -0.000002 -0.000000 0.000000 -0.000001 -0.000000 -0.000000 -0.000001 -0.000000 0.000000 -0.000001 -0.000000 -0.000000 -0.000001 -0.000000 0.000000 -0.000001 -0.000000 0.000000 -0.000001 9.614451 5.464039 -0.964669 2.967258 29.388316 -23.842160 -29.505830 -2.242789 -18.255719 -33.146707 28.587745 2.604659 -18.846196 -16.940894 18.498290 -22.902734 34.952294 -16.543283 -0.000003 -0.000000 0.000000 1.787057 3.635937 -0.782530 0.021784 -4.161391 -5.704387 0.000002 0.000003 0.000002 -2.357184 3.687672 3.575662 0.026027 -4.809380 -13.391797 0.000003 -0.000001 0.000001 -3.083871 4.221354 -4.464761 -0.937159 -0.491946 -2.483514 -0.000001 0.000001 -0.000001 -9.504090 9.554809 0.183822 -0.089112 -0.086061 -17.364287 -0.000000 0.000001 0.000001 0.000003 -0.000002 0.000002 0.246617 5.250673 -1.735550 -9.675488 31.357375 7.499120 -45.727290 64.035011 48.233932 -9.874142 -19.863870 -7.175276 24.918338 -21.323386 30.343064 9.041927 8.262100 -18.001814 -0.000000 -0.000001 0.000001 -0.070689 -3.035240 61.424233 0.006479 4.395178 66.609173 0.000001 0.000000 -0.000001 -1.235401 -0.119481 68.274277 -0.077298 4.902840 84.501898 -0.000000 -0.000002 0.000001 0.883160 -4.613427 79.192949 -0.717759 1.136478 73.255773 -0.000000 0.000001 -0.000004 -3.944547 0.099981 86.764781 -0.029790 0.060122 54.415161 -0.000000 0.000002 -0.000001 0.000000 0.000001 -0.000001 0.000000 -0.000000 -0.000000 0.000000 -0.000001 -0.000000 0.000000 -0.000000 -0.000000 0.000000 -0.000000 -0.000000 0.000000 -0.000000 -0.000000 0.000000 -0.000001 0.000000 0.000000 -0.000000 -0.000000 0.000000 -0.000000 -0.000000 0.000000 -0.000000 -0.000000 0.000000 -0.000001 0.000000 -0.000000 -0.000001 0.000001 -0.000000 -0.000001 0.000001 -0.000000 -0.000001 0.000001 
9.577023 71.269241 133.303314 173.016956 9.589058 151.743540 -0.000000 0.000000 0.000000 -40.085202 29.020524 25.695209 27.696549 22.794503 0.949683 -18.096468 -1.927763 7.583247 -0.000000 -0.000003 0.000000 -0.000000 -0.000001 -0.000003 -73.807051 12.196620 -18.543571 43.735351 -3.308691 9.113368 18.685741 -1.800693 10.024354 0.000000 -0.000001 0.000001 -0.000000 0.000000 -0.000000 14.155650 -9.884491 1.752057 -0.111630 -2.851042 0.604254 -0.130777 -2.873911 0.638588 -5.914949 2.063924 3.837985 -14.947568 -1.940799 0.130088 0.000000 0.000000 0.000000 0.000000 0.000000 0.000000 0.000000 0.000000 -0.000001 0.000000 0.000000 0.000000 0.000001 0.000000 0.000000 0.000000 0.000000 0.000000 0.000001 0.000000 0.000000 0.000000 0.000000 0.000000 0.000000 0.000000 0.000000 10.899069 4.227676 -2.937292 2.711739 35.974839 -25.783133 -27.875812 -8.816864 -15.551207 -52.513626 25.162441 10.217641 -23.920986 -11.120905 18.211234 -23.666576 32.377156 -15.299236 -0.000001 -0.000001 -0.000002 0.832917 3.132244 0.896433 0.067708 -4.221663 -6.009135 0.000003 -0.000001 -0.000002 -3.608411 3.236862 4.717859 0.027827 -4.788872 -12.997790 0.000001 0.000000 0.000002 -3.647365 4.130711 -4.559495 -0.988107 -0.535144 -2.875836 -0.000005 0.000001 0.000001 -9.246207 9.060214 -0.490379 -0.083436 -0.124066 -19.679636 -0.000002 0.000000 0.000001 0.000001 0.000002 0.000001 0.130265 6.913356 -6.629479 -13.862178 44.444427 3.783940 -55.761132 66.618018 54.460336 -5.581395 -11.775047 -2.367372 24.918338 -21.323388 30.343057 9.041927 8.262102 -18.001814 -0.000002 -0.000001 0.000003 -0.070690 -3.035240 61.424226 0.006478 4.395177 66.609173 -0.000000 0.000001 -0.000001 -1.235400 -0.119482 68.274270 -0.077297 4.902842 84.501898 0.000000 -0.000001 -0.000001 0.883160 -4.613426 79.192943 -0.717759 1.136476 73.255773 0.000001 -0.000001 0.000001 -3.944547 0.099979 86.764781 -0.029791 0.060122 54.415157 0.000000 0.000001 -0.000003 0.000001 -0.000000 -0.000001 -0.000001 0.000003 0.000003 -0.000001 0.000001 0.000002 -0.000001 0.000003 0.000002 -0.000001 0.000003 0.000002 -0.000001 0.000003 0.000003 -0.000001 0.000001 0.000003 -0.000001 0.000003 0.000002 -0.000001 0.000003 0.000002 -0.000001 0.000003 0.000003 -0.000001 0.000001 0.000003 -0.000000 0.000000 0.000000 -0.000000 0.000000 0.000000 -0.000000 0.000000 0.000000 
8.953960 74.553345 134.676346 179.828718 23.826505 150.134183 0.000000 0.000001 -0.000000 -35.323549 25.536057 26.638781 22.424119 35.321982 3.098777 -1.844050 -1.509252 5.954960 0.000001 0.000001 -0.000000 -0.000001 0.000000 -0.000001 -78.583218 9.779223 -31.525855 55.633305 -1.738137 10.730465 18.523876 0.179072 9.362150 0.000003 0.000002 -0.000001 0.000001 -0.000002 -0.000000 13.122879 -7.814244 3.055385 -0.324833 -2.382403 0.652005 -0.353195 -2.411151 0.685826 -5.773611 2.792018 3.365878 -13.824959 -2.246817 -0.702714 0.000000 -0.000000 -0.000001 0.000000 -0.000000 -0.000001 0.000000 -0.000000 -0.000001 0.000000 -0.000000 -0.000001 -0.000000 0.000001 -0.000001 0.000000 -0.000000 -0.000001 -0.000000 0.000001 -0.000001 0.000000 -0.000000 -0.000001 0.000000 -0.000000 -0.000001 11.842402 2.484125 -5.934223 -0.479313 44.172094 -25.199433 -26.912530 -12.793858 -13.807242 -58.950570 18.913470 11.713978 -24.589210 -5.762333 15.264086 -20.824098 28.984075 -13.669137 0.000004 0.000002 -0.000000 0.667500 3.000166 1.832687 0.079996 -4.286115 -6.354135 0.000000 0.000003 -0.000003 -3.754793 3.026374 5.400309 0.023876 -4.785121 -12.657092 0.000004 -0.000002 0.000002 -3.558024 3.851276 -4.389037 -0.973257 -0.588756 -4.245900 -0.000002 0.000001 -0.000006 -8.451220 8.516099 -1.554532 -0.070840 -0.132427 -20.965715 -0.000000 0.000002 0.000003 0.000000 -0.000001 -0.000003 0.104161 9.620344 -10.091747 -17.448089 54.309348 1.206677 -47.814729 67.155356 44.374568 -2.492176 -5.821756 -2.277128 24.918337 -21.323390 30.343061 9.041925 8.262101 -18.001817 0.000005 0.000000 0.000001 -0.070689 -3.035240 61.424226 0.006478 4.395177 66.609180 0.000001 0.000001 -0.000001 -1.235401 -0.119482 68.274270 -0.077297 4.902840 84.501898 -0.000001 0.000001 -0.000002 0.883162 -4.613427 79.192943 -0.717759 1.136478 73.255773 -0.000001 -0.000001 -0.000001 -3.944544 0.099979 86.764781 -0.029793 0.060121 54.415161 -0.000001 0.000002 0.000001 -0.000001 0.000000 0.000001 -0.000000 -0.000000 0.000001 0.000000 -0.000000 0.000001 -0.000000 -0.000000 0.000001 -0.000000 -0.000000 0.000001 -0.000000 -0.000000 0.000001 0.000000 -0.000000 0.000001 -0.000000 -0.000000 0.000001 -0.000000 -0.000000 0.000001 -0.000000 -0.000000 0.000001 0.000000 -0.000000 0.000001 0.000000 0.000001 -0.000000 0.000000 0.000001 -0.000000 0.000000 0.000001 -0.000000 
